<svg width="272" height="128" viewBox="0 0 272 128" fill="none" xmlns="http://www.w3.org/2000/svg">
<g filter="url(#filter0_dddd_355_66)">
<rect x="24" y="9" width="224" height="80" rx="12" fill="black"/>
<path d="M88.2502 50.2719C88.2893 47.184 89.9199 44.2623 92.5067 42.645C90.8748 40.2748 88.1415 38.772 85.2978 38.6816C82.2647 38.3578 79.3243 40.5273 77.7787 40.5273C76.2031 40.5273 73.8234 38.7137 71.2609 38.7673C67.9208 38.8771 64.8069 40.8083 63.1818 43.7781C59.6886 49.9288 62.2942 58.9682 65.6405 63.94C67.3146 66.3745 69.2713 69.0939 71.8315 68.9975C74.3368 68.8918 75.2725 67.3728 78.2967 67.3728C81.2928 67.3728 82.1707 68.9975 84.7828 68.9362C87.4712 68.8918 89.165 66.4908 90.7804 64.0333C91.9833 62.2986 92.9089 60.3814 93.523 58.3527C90.3637 56.9937 88.2539 53.7604 88.2502 50.2719Z" fill="white"/>
<path d="M83.3162 35.4119C84.782 33.6224 85.5042 31.3223 85.3293 29C83.0899 29.2392 81.0213 30.3277 79.5357 32.0485C78.083 33.7299 77.327 35.9895 77.4699 38.223C79.7101 38.2465 81.9124 37.1875 83.3162 35.4119Z" fill="white"/>
<g clip-path="url(#clip0_355_66)">
<path d="M112.342 33.7194C112.26 33.4609 112.149 33.2293 112.01 33.0248C111.873 32.8174 111.71 32.6413 111.52 32.4964C111.329 32.3487 111.112 32.2364 110.868 32.1597C110.626 32.083 110.361 32.0447 110.071 32.0447C109.579 32.0447 109.136 32.1711 108.741 32.424C108.346 32.6768 108.034 33.0475 107.804 33.5362C107.576 34.022 107.463 34.6171 107.463 35.3217C107.463 36.0291 107.578 36.6271 107.808 37.1157C108.038 37.6043 108.353 37.9751 108.754 38.2279C109.155 38.4808 109.611 38.6072 110.122 38.6072C110.596 38.6072 111.01 38.5106 111.362 38.3174C111.717 38.1242 111.991 37.8515 112.184 37.4992C112.38 37.1441 112.478 36.7265 112.478 36.2464L112.819 36.3103H110.322V35.2237H113.753V36.2166C113.753 36.9495 113.596 37.5859 113.284 38.1257C112.974 38.6626 112.545 39.0774 111.997 39.37C111.451 39.6626 110.826 39.8089 110.122 39.8089C109.332 39.8089 108.639 39.6271 108.042 39.2634C107.449 38.8998 106.986 38.3842 106.653 37.7166C106.321 37.0461 106.155 36.2507 106.155 35.3302C106.155 34.6342 106.251 34.0092 106.444 33.4552C106.638 32.9012 106.909 32.4311 107.258 32.0447C107.611 31.6555 108.024 31.3586 108.498 31.1541C108.976 30.9467 109.497 30.843 110.062 30.843C110.534 30.843 110.973 30.9126 111.379 31.0518C111.788 31.191 112.152 31.3884 112.47 31.6441C112.791 31.8998 113.057 32.2038 113.267 32.5561C113.477 32.9055 113.619 33.2933 113.693 33.7194H112.342ZM118.143 39.8217C117.498 39.8217 116.943 39.6839 116.477 39.4083C116.014 39.1299 115.656 38.7393 115.403 38.2365C115.153 37.7308 115.028 37.1384 115.028 36.4595C115.028 35.789 115.153 35.1981 115.403 34.6867C115.656 34.1754 116.008 33.7762 116.46 33.4893C116.914 33.2024 117.445 33.0589 118.053 33.0589C118.423 33.0589 118.781 33.12 119.127 33.2421C119.474 33.3643 119.785 33.5561 120.061 33.8174C120.336 34.0788 120.553 34.4183 120.712 34.8359C120.872 35.2507 120.951 35.7549 120.951 36.3487V36.8004H115.748V35.8458H119.703C119.703 35.5106 119.634 35.2137 119.498 34.9552C119.362 34.6938 119.17 34.4879 118.923 34.3373C118.678 34.1867 118.391 34.1115 118.062 34.1115C117.704 34.1115 117.391 34.1995 117.124 34.3757C116.86 34.549 116.656 34.7762 116.511 35.0575C116.369 35.3359 116.298 35.6384 116.298 35.9651V36.7109C116.298 37.1484 116.374 37.5205 116.528 37.8274C116.684 38.1342 116.901 38.3686 117.18 38.5305C117.458 38.6896 117.784 38.7691 118.156 38.7691C118.397 38.7691 118.617 38.735 118.816 38.6668C119.015 38.5958 119.187 38.4907 119.332 38.3515C119.477 38.2123 119.587 38.0404 119.664 37.8359L120.87 38.0532C120.774 38.4083 120.6 38.7194 120.35 38.9865C120.103 39.2507 119.792 39.4566 119.417 39.6043C119.045 39.7492 118.62 39.8217 118.143 39.8217ZM125.42 33.1441V34.1668H121.845V33.1441H125.42ZM122.804 31.5759H124.078V37.7677C124.078 38.0149 124.115 38.2009 124.189 38.3259C124.263 38.4481 124.358 38.5319 124.474 38.5774C124.594 38.62 124.723 38.6413 124.862 38.6413C124.964 38.6413 125.054 38.6342 125.13 38.62C125.207 38.6058 125.267 38.5944 125.309 38.5859L125.54 39.6384C125.466 39.6668 125.361 39.6953 125.224 39.7237C125.088 39.7549 124.917 39.772 124.713 39.7748C124.378 39.7805 124.065 39.7208 123.775 39.5958C123.486 39.4708 123.251 39.2776 123.072 39.0163C122.893 38.7549 122.804 38.4268 122.804 38.0319V31.5759ZM132.763 39.8217C132.149 39.8217 131.613 39.6811 131.156 39.3998C130.699 39.1186 130.344 38.7251 130.091 38.2194C129.838 37.7137 129.711 37.1228 129.711 36.4467C129.711 35.7677 129.838 35.1739 130.091 34.6654C130.344 34.1569 130.699 33.762 131.156 33.4808C131.613 33.1995 132.149 33.0589 132.763 33.0589C133.376 33.0589 133.912 33.1995 134.369 33.4808C134.826 33.762 135.182 34.1569 135.434 34.6654C135.687 35.1739 135.814 35.7677 135.814 36.4467C135.814 37.1228 135.687 37.7137 135.434 38.2194C135.182 38.7251 134.826 39.1186 134.369 39.3998C133.912 39.6811 133.376 39.8217 132.763 39.8217ZM132.767 38.7521C133.165 38.7521 133.494 38.647 133.755 38.4367C134.017 38.2265 134.21 37.9467 134.335 37.5972C134.463 37.2478 134.527 36.8629 134.527 36.4424C134.527 36.0248 134.463 35.6413 134.335 35.2918C134.21 34.9396 134.017 34.6569 133.755 34.4438C133.494 34.2308 133.165 34.1242 132.767 34.1242C132.366 34.1242 132.034 34.2308 131.77 34.4438C131.508 34.6569 131.314 34.9396 131.186 35.2918C131.061 35.6413 130.998 36.0248 130.998 36.4424C130.998 36.8629 131.061 37.2478 131.186 37.5972C131.314 37.9467 131.508 38.2265 131.77 38.4367C132.034 38.647 132.366 38.7521 132.767 38.7521ZM138.51 35.8032V39.6896H137.236V33.1441H138.459V34.2095H138.54C138.69 33.8629 138.926 33.5845 139.247 33.3742C139.571 33.164 139.979 33.0589 140.47 33.0589C140.916 33.0589 141.307 33.1526 141.642 33.3401C141.977 33.5248 142.237 33.8004 142.422 34.1668C142.607 34.5333 142.699 34.9865 142.699 35.5262V39.6896H141.425V35.6796C141.425 35.2052 141.301 34.8345 141.054 34.5674C140.807 34.2975 140.467 34.1626 140.036 34.1626C139.74 34.1626 139.477 34.2265 139.247 34.3543C139.02 34.4822 138.84 34.6697 138.706 34.9168C138.575 35.1612 138.51 35.4566 138.51 35.8032Z" fill="white"/>
<path d="M108.586 66.6896H106.024L111.782 50.6896H114.571L120.329 66.6896H117.766L113.243 53.5958H113.118L108.586 66.6896ZM109.016 60.4239H117.329V62.4552H109.016V60.4239ZM122.452 71.1896V54.6896H124.733V56.6349H124.928C125.064 56.3849 125.259 56.0958 125.514 55.7677C125.769 55.4396 126.124 55.1531 126.577 54.9083C127.03 54.6583 127.629 54.5333 128.374 54.5333C129.342 54.5333 130.207 54.7781 130.967 55.2677C131.728 55.7573 132.324 56.463 132.756 57.3849C133.194 58.3068 133.413 59.4161 133.413 60.713C133.413 62.0099 133.196 63.1219 132.764 64.049C132.332 64.9708 131.738 65.6818 130.983 66.1818C130.228 66.6766 129.366 66.924 128.397 66.924C127.668 66.924 127.071 66.8016 126.608 66.5568C126.15 66.312 125.79 66.0255 125.53 65.6974C125.269 65.3693 125.069 65.0776 124.928 64.8224H124.788V71.1896H122.452ZM124.741 60.6896C124.741 61.5333 124.863 62.2729 125.108 62.9083C125.353 63.5437 125.707 64.0411 126.17 64.4005C126.634 64.7547 127.202 64.9318 127.874 64.9318C128.571 64.9318 129.155 64.7469 129.624 64.3771C130.092 64.0021 130.446 63.4943 130.686 62.8536C130.931 62.213 131.053 61.4917 131.053 60.6896C131.053 59.8979 130.933 59.187 130.694 58.5568C130.459 57.9266 130.105 57.4292 129.631 57.0646C129.163 56.7 128.577 56.5177 127.874 56.5177C127.196 56.5177 126.624 56.6922 126.155 57.0411C125.691 57.3901 125.34 57.8771 125.1 58.5021C124.861 59.1271 124.741 59.8562 124.741 60.6896ZM136.03 71.1896V54.6896H138.311V56.6349H138.506C138.642 56.3849 138.837 56.0958 139.092 55.7677C139.347 55.4396 139.702 55.1531 140.155 54.9083C140.608 54.6583 141.207 54.5333 141.952 54.5333C142.92 54.5333 143.785 54.7781 144.545 55.2677C145.306 55.7573 145.902 56.463 146.334 57.3849C146.772 58.3068 146.991 59.4161 146.991 60.713C146.991 62.0099 146.775 63.1219 146.342 64.049C145.91 64.9708 145.316 65.6818 144.561 66.1818C143.806 66.6766 142.944 66.924 141.975 66.924C141.246 66.924 140.65 66.8016 140.186 66.5568C139.728 66.312 139.368 66.0255 139.108 65.6974C138.847 65.3693 138.647 65.0776 138.506 64.8224H138.366V71.1896H136.03ZM138.319 60.6896C138.319 61.5333 138.441 62.2729 138.686 62.9083C138.931 63.5437 139.285 64.0411 139.749 64.4005C140.212 64.7547 140.78 64.9318 141.452 64.9318C142.15 64.9318 142.733 64.7469 143.202 64.3771C143.67 64.0021 144.025 63.4943 144.264 62.8536C144.509 62.213 144.631 61.4917 144.631 60.6896C144.631 59.8979 144.512 59.187 144.272 58.5568C144.038 57.9266 143.683 57.4292 143.209 57.0646C142.741 56.7 142.155 56.5177 141.452 56.5177C140.775 56.5177 140.202 56.6922 139.733 57.0411C139.269 57.3901 138.918 57.8771 138.678 58.5021C138.439 59.1271 138.319 59.8562 138.319 60.6896ZM164.344 54.8927C164.261 54.1531 163.917 53.5802 163.313 53.1739C162.709 52.7625 161.948 52.5568 161.032 52.5568C160.375 52.5568 159.808 52.6609 159.329 52.8693C158.849 53.0724 158.477 53.3536 158.211 53.713C157.951 54.0672 157.821 54.4708 157.821 54.924C157.821 55.3042 157.909 55.6323 158.086 55.9083C158.269 56.1844 158.506 56.4161 158.797 56.6036C159.094 56.7859 159.412 56.9396 159.75 57.0646C160.089 57.1844 160.415 57.2833 160.727 57.3615L162.29 57.7677C162.8 57.8927 163.323 58.062 163.86 58.2755C164.396 58.4891 164.894 58.7703 165.352 59.1193C165.81 59.4682 166.18 59.9005 166.461 60.4161C166.748 60.9318 166.891 61.549 166.891 62.2677C166.891 63.174 166.657 63.9786 166.188 64.6818C165.724 65.3849 165.05 65.9396 164.165 66.3458C163.284 66.7521 162.219 66.9552 160.969 66.9552C159.771 66.9552 158.735 66.7651 157.86 66.3849C156.985 66.0047 156.3 65.4656 155.805 64.7677C155.31 64.0646 155.037 63.2312 154.985 62.2677H157.407C157.454 62.8458 157.641 63.3276 157.969 63.713C158.303 64.0932 158.727 64.3771 159.243 64.5646C159.764 64.7469 160.334 64.838 160.954 64.838C161.636 64.838 162.243 64.7312 162.774 64.5177C163.31 64.299 163.732 63.9969 164.04 63.6115C164.347 63.2208 164.5 62.7651 164.5 62.2443C164.5 61.7703 164.365 61.3823 164.094 61.0802C163.829 60.7781 163.467 60.5281 163.008 60.3302C162.555 60.1323 162.042 59.9578 161.469 59.8068L159.579 59.2911C158.297 58.9422 157.282 58.4292 156.532 57.7521C155.787 57.075 155.415 56.1792 155.415 55.0646C155.415 54.1427 155.665 53.338 156.165 52.6505C156.665 51.963 157.342 51.4292 158.196 51.049C159.05 50.6635 160.014 50.4708 161.086 50.4708C162.17 50.4708 163.125 50.6609 163.954 51.0411C164.787 51.4213 165.443 51.9448 165.922 52.6114C166.402 53.2729 166.652 54.0333 166.672 54.8927H164.344ZM175.19 54.6896V56.5646H168.635V54.6896H175.19ZM170.393 51.8146H172.729V63.1661C172.729 63.6193 172.797 63.9604 172.932 64.1896C173.068 64.4135 173.242 64.5672 173.456 64.6505C173.674 64.7286 173.911 64.7677 174.167 64.7677C174.354 64.7677 174.518 64.7547 174.659 64.7286C174.799 64.7026 174.909 64.6818 174.987 64.6661L175.409 66.5958C175.273 66.6479 175.081 66.7 174.831 66.7521C174.581 66.8094 174.268 66.8406 173.893 66.8458C173.278 66.8562 172.706 66.7469 172.174 66.5177C171.643 66.2885 171.213 65.9344 170.885 65.4552C170.557 64.976 170.393 64.3745 170.393 63.6505V51.8146ZM182.7 66.9318C181.575 66.9318 180.593 66.674 179.754 66.1583C178.916 65.6427 178.265 64.9213 177.801 63.9943C177.338 63.0672 177.106 61.9838 177.106 60.7443C177.106 59.4995 177.338 58.4109 177.801 57.4786C178.265 56.5463 178.916 55.8224 179.754 55.3068C180.593 54.7911 181.575 54.5333 182.7 54.5333C183.825 54.5333 184.806 54.7911 185.645 55.3068C186.484 55.8224 187.135 56.5463 187.598 57.4786C188.062 58.4109 188.293 59.4995 188.293 60.7443C188.293 61.9838 188.062 63.0672 187.598 63.9943C187.135 64.9213 186.484 65.6427 185.645 66.1583C184.806 66.674 183.825 66.9318 182.7 66.9318ZM182.708 64.9708C183.437 64.9708 184.041 64.7781 184.52 64.3927C184.999 64.0073 185.353 63.4943 185.583 62.8536C185.817 62.213 185.934 61.5073 185.934 60.7365C185.934 59.9708 185.817 59.2677 185.583 58.6271C185.353 57.9812 184.999 57.463 184.52 57.0724C184.041 56.6818 183.437 56.4864 182.708 56.4864C181.973 56.4864 181.364 56.6818 180.879 57.0724C180.4 57.463 180.043 57.9812 179.809 58.6271C179.58 59.2677 179.465 59.9708 179.465 60.7365C179.465 61.5073 179.58 62.213 179.809 62.8536C180.043 63.4943 180.4 64.0073 180.879 64.3927C181.364 64.7781 181.973 64.9708 182.708 64.9708ZM190.901 66.6896V54.6896H193.159V56.5958H193.284C193.502 55.95 193.888 55.4422 194.44 55.0724C194.997 54.6974 195.627 54.5099 196.331 54.5099C196.476 54.5099 196.648 54.5151 196.846 54.5255C197.049 54.5359 197.208 54.5489 197.323 54.5646V56.7989C197.229 56.7729 197.062 56.7443 196.823 56.713C196.583 56.6766 196.344 56.6583 196.104 56.6583C195.552 56.6583 195.06 56.7755 194.627 57.0099C194.2 57.2391 193.862 57.5594 193.612 57.9708C193.362 58.3771 193.237 58.8406 193.237 59.3615V66.6896H190.901ZM204.086 66.9318C202.904 66.9318 201.886 66.6792 201.032 66.174C200.183 65.6635 199.527 64.9474 199.063 64.0255C198.605 63.0984 198.375 62.0125 198.375 60.7677C198.375 59.5385 198.605 58.4552 199.063 57.5177C199.527 56.5802 200.172 55.8484 201 55.3224C201.834 54.7963 202.808 54.5333 203.922 54.5333C204.599 54.5333 205.256 54.6453 205.891 54.8693C206.527 55.0932 207.097 55.4448 207.602 55.924C208.107 56.4031 208.506 57.0255 208.797 57.7911C209.089 58.5516 209.235 59.476 209.235 60.5646V61.3927H199.696V59.6427H206.946C206.946 59.0281 206.821 58.4838 206.571 58.0099C206.321 57.5307 205.969 57.1531 205.516 56.8771C205.068 56.601 204.542 56.463 203.938 56.463C203.282 56.463 202.709 56.6245 202.219 56.9474C201.735 57.2651 201.36 57.6818 201.094 58.1974C200.834 58.7078 200.704 59.2625 200.704 59.8615V61.2286C200.704 62.0307 200.844 62.713 201.125 63.2755C201.412 63.838 201.81 64.2677 202.321 64.5646C202.831 64.8562 203.428 65.0021 204.11 65.0021C204.553 65.0021 204.956 64.9396 205.321 64.8146C205.685 64.6844 206 64.4917 206.266 64.2365C206.532 63.9812 206.735 63.6661 206.875 63.2911L209.086 63.6896C208.909 64.3406 208.592 64.9109 208.133 65.4005C207.68 65.8849 207.11 66.2625 206.422 66.5333C205.74 66.799 204.961 66.9318 204.086 66.9318Z" fill="white"/>
</g>
</g>
<defs>
<filter id="filter0_dddd_355_66" x="0.551723" y="0.724138" width="270.897" height="126.897" filterUnits="userSpaceOnUse" color-interpolation-filters="sRGB">
<feFlood flood-opacity="0" result="BackgroundImageFix"/>
<feColorMatrix in="SourceAlpha" type="matrix" values="0 0 0 0 0 0 0 0 0 0 0 0 0 0 0 0 0 0 127 0" result="hardAlpha"/>
<feOffset dy="0.687128"/>
<feGaussianBlur stdDeviation="0.530963"/>
<feColorMatrix type="matrix" values="0 0 0 0 0 0 0 0 0 0 0 0 0 0 0 0 0 0 0.0268173 0"/>
<feBlend mode="normal" in2="BackgroundImageFix" result="effect1_dropShadow_355_66"/>
<feColorMatrix in="SourceAlpha" type="matrix" values="0 0 0 0 0 0 0 0 0 0 0 0 0 0 0 0 0 0 127 0" result="hardAlpha"/>
<feOffset dy="1.89982"/>
<feGaussianBlur stdDeviation="1.46804"/>
<feColorMatrix type="matrix" values="0 0 0 0 0 0 0 0 0 0 0 0 0 0 0 0 0 0 0.0399899 0"/>
<feBlend mode="normal" in2="effect1_dropShadow_355_66" result="effect2_dropShadow_355_66"/>
<feColorMatrix in="SourceAlpha" type="matrix" values="0 0 0 0 0 0 0 0 0 0 0 0 0 0 0 0 0 0 127 0" result="hardAlpha"/>
<feOffset dy="4.57404"/>
<feGaussianBlur stdDeviation="3.53448"/>
<feColorMatrix type="matrix" values="0 0 0 0 0 0 0 0 0 0 0 0 0 0 0 0 0 0 0.0582218 0"/>
<feBlend mode="normal" in2="effect2_dropShadow_355_66" result="effect3_dropShadow_355_66"/>
<feColorMatrix in="SourceAlpha" type="matrix" values="0 0 0 0 0 0 0 0 0 0 0 0 0 0 0 0 0 0 127 0" result="hardAlpha"/>
<feOffset dy="15.1724"/>
<feGaussianBlur stdDeviation="11.7241"/>
<feColorMatrix type="matrix" values="0 0 0 0 0 0 0 0 0 0 0 0 0 0 0 0 0 0 0.08 0"/>
<feBlend mode="normal" in2="effect3_dropShadow_355_66" result="effect4_dropShadow_355_66"/>
<feBlend mode="normal" in="SourceGraphic" in2="effect4_dropShadow_355_66" result="shape"/>
</filter>
<clipPath id="clip0_355_66">
<rect width="105" height="45.3793" fill="white" transform="translate(105.477 26.3103)"/>
</clipPath>
</defs>
</svg>
