<svg width="93" height="80" viewBox="0 0 93 80" fill="none" xmlns="http://www.w3.org/2000/svg">
<g clip-path="url(#clip0_375_585)">
<path d="M14.5492 30.5762C18.4267 30.4225 22.4909 30.8538 26.3154 31.4789L26.3078 38.9889C23.4787 38.5334 20.6019 38.1482 17.7308 38.0463C17.1828 38.0269 14.6842 38.1258 15.6155 39.3335C16.0271 39.8673 17.282 40.2428 17.9524 40.459C22.2932 41.8586 28.626 43.7737 28.5596 49.3795C28.4538 56.0143 20.7908 57.7713 15.4759 58.0121C14.3268 58.0635 13.1533 58.0441 11.9994 58.036C8.50788 58.0164 3.29431 57.7498 0.185086 56.2548C0.130945 55.4966 0.164268 54.3595 0.164796 53.5709L0.169312 48.751C3.28245 49.4416 6.63471 50.2404 9.81665 50.4682C10.5142 50.5182 11.7633 50.5025 12.2991 49.9858C12.4252 49.8644 12.5627 49.6201 12.5359 49.4598C12.3183 48.1592 8.94653 47.2509 7.85538 46.7338C7.05004 46.3995 6.24468 46.0606 5.46369 45.6722C4.2265 45.057 3.08602 44.3196 2.0622 43.3938C0.795113 42.2482 0.152891 40.875 0.0877035 39.1755C0.0208851 37.4335 0.542133 35.8031 1.77199 34.534C4.736 31.481 10.538 30.6931 14.5492 30.5762Z" fill="white"/>
<path d="M25.464 0.232998C26.3567 0.183047 27.6418 0.219685 28.5515 0.232749C28.5876 1.58776 28.566 3.01741 28.5661 4.37693V11.4305L28.5593 27.6598L24.7258 27.6593L19.2977 27.6625C19.2493 25.8768 19.2965 23.975 19.2856 22.1782C19.2798 21.2261 19.229 19.6193 19.2964 18.7327C17.4028 21.2936 15.3772 23.8693 13.5265 26.4461C12.8556 25.6129 12.1499 24.6294 11.5008 23.7633L7.89316 18.955C7.92306 19.8964 7.89733 20.9962 7.89709 21.9514L7.89762 27.6594L0.101989 27.6593C0.0544519 26.4883 0.0908142 25.0632 0.0907271 23.8788L0.090114 16.8294C0.0897579 11.3505 0.0186256 5.69528 0.100175 0.229785C1.08138 0.213066 2.30796 0.192494 3.27602 0.2386C3.57274 0.469244 4.19834 1.21972 4.47599 1.53751L6.55135 3.91356L14.249 12.69C14.8542 11.934 15.7064 11.0405 16.3737 10.2997L20.2341 6.01138L23.5737 2.29911C24.1109 1.70152 24.9062 0.765709 25.464 0.232998Z" fill="white"/>
<path d="M67.5222 21.8243L67.7563 21.8361C67.9941 21.9964 67.9679 22.219 67.8797 22.4734C67.0885 24.7582 66.332 27.0763 65.5559 29.3658L58.9672 48.939C58.013 51.7897 57.0576 54.6695 56.0387 57.499C55.9923 57.6281 55.859 57.7688 55.7248 57.813C55.3563 57.6535 52.9105 55.6067 52.4613 55.2327C49.6555 52.8971 46.7148 50.6105 43.9414 48.2484C43.455 48.8917 42.5257 49.8637 41.959 50.476L39.4929 53.1879L32.2489 61.1767C31.0545 62.4931 29.7362 63.8782 28.599 65.226C28.4437 65.3536 28.4052 65.3636 28.2127 65.4082C27.8232 65.2833 28.0089 64.7079 28.1097 64.4076C28.6566 62.7782 29.2622 61.1361 29.8132 59.5119L35.7392 42.1689L38.3138 34.613C38.7648 33.2725 39.4087 31.1661 39.9653 29.91C40.2411 29.7427 40.5148 29.9813 40.7373 30.1614C41.559 30.8263 42.3745 31.4997 43.1923 32.1694L47.7687 35.9092L50.0798 37.793C50.5108 38.1448 51.1399 38.6238 51.4962 39.0195C51.6936 38.7043 52.0626 38.3488 52.3225 38.068L53.8472 36.4376L58.5613 31.3832L64.8657 24.6202L66.6632 22.6919C66.8978 22.4425 67.2588 21.9991 67.5222 21.8243Z" fill="#FE0000"/>
<path d="M66.7833 23.5029L66.8193 23.5442C66.3195 25.1644 65.7068 26.8715 65.1615 28.4896L62.0348 37.7703L57.9035 50.0309C57.1312 52.3233 56.3665 54.6629 55.5639 56.9422C53.8154 55.4119 51.6407 53.7242 49.8202 52.2369L46.2016 49.2808C45.8764 49.0152 44.1267 47.5303 43.9065 47.5037C43.4501 47.7924 42.5338 48.8764 42.1255 49.3261L39.7792 51.9107L29.3742 63.3641C29.2942 63.4683 29.2905 63.4886 29.1738 63.5534C29.1103 63.386 29.27 63.0445 29.3325 62.8639C29.7836 61.5617 30.2243 60.2539 30.67 58.9497L33.724 50.0163L40.3427 30.662C42.7113 32.6589 45.2253 34.6581 47.6307 36.6225L50.0108 38.5662C50.4228 38.9028 51.0345 39.4344 51.4634 39.7051C51.7987 39.688 53.2867 37.9651 53.5794 37.6509L56.6297 34.3796L66.7833 23.5029Z" fill="#FECE00"/>
<path d="M63.4779 0.0915527C66.4888 0.122629 69.5555 0.0936283 72.5703 0.0934633L91.9618 0.0953208C91.9806 0.395892 91.9835 0.705949 91.9859 1.0073C92.0073 3.67793 91.9543 6.35573 91.9918 9.02559C91.1365 8.99828 90.0889 9.02746 89.2229 9.02807L83.5712 9.03583C83.6398 9.79504 83.5874 11.5901 83.5871 12.3987L83.5845 19.2316C83.5835 22.0182 83.5573 24.8456 83.5892 27.6289C79.7693 27.557 75.7098 27.6245 71.8739 27.6262C71.8197 25.6063 71.8572 23.4399 71.8572 21.4111L71.8503 9.03019C69.1032 9.071 66.228 9.03039 63.4742 9.0286C63.4625 8.60214 63.4558 8.17341 63.4598 7.74686C63.4835 5.19984 63.4165 2.63697 63.4779 0.0915527Z" fill="white"/>
<path d="M76.8978 30.5259C78.3823 30.4139 79.6095 31.3339 80.1931 32.6267C80.5569 33.4327 81.0171 34.2731 81.4144 35.0697L84.474 41.1969L89.9404 52.1338C90.8767 54.0067 92.0117 56.1526 92.8692 58.0345C91.3565 58.0648 89.7683 58.0429 88.2479 58.0434L80.6851 58.0423C80.388 57.3325 79.9859 56.1242 79.7375 55.3746C79.2238 55.4133 78.3508 55.3858 77.8104 55.3854L73.2287 55.398C72.9398 56.2741 72.702 57.1695 72.4022 58.0514C68.9015 58.0035 65.3023 58.0809 61.7842 58.078C61.9438 57.6428 62.2397 57.0604 62.4454 56.6246L63.4868 54.3982L67.0178 46.8516L71.8098 36.6029L73.1151 33.8034C74.0429 31.8145 74.4372 30.7616 76.8978 30.5259ZM73.966 50.0379L76.2664 50.0363L78.8288 50.0391C78.6169 49.3665 76.6869 43.0538 76.5144 42.8222C75.6294 45.2067 74.8287 47.6434 73.966 50.0379Z" fill="white"/>
<path d="M45.2721 71.1239C45.3806 71.2692 46.2804 72.9402 46.3763 73.1362C46.9853 74.3811 48.1035 76.1106 48.5563 77.3794C49.6089 75.2597 50.786 73.1914 51.8456 71.0813C52.4799 73.2936 53.0344 75.537 53.6469 77.7559C53.8186 78.3776 53.9883 79.01 54.1346 79.6378C53.6639 79.645 53.1913 79.6435 52.7204 79.6442C52.3786 78.3239 51.9965 76.9389 51.6896 75.6158C51.5964 75.2274 51.5434 74.8351 51.5105 74.4378C51.3243 75.1196 51.0564 75.6118 50.7067 76.2225C49.9914 77.4721 49.2935 78.7322 48.5652 79.9747C47.7276 78.2396 46.3758 76.2777 45.6418 74.5374C45.55 75.3462 45.2972 76.2479 45.0947 77.0466C44.8804 77.8921 44.6693 78.8078 44.4225 79.64C43.9582 79.6463 43.4832 79.6411 43.0181 79.6405C43.5542 77.7202 44.0169 75.7373 44.5447 73.8115C44.789 72.9199 44.9952 72.0057 45.2721 71.1239Z" fill="white"/>
<path d="M26.4067 71.1306C26.5666 71.287 27.57 73.2038 27.7598 73.5573L31.0107 79.6331C30.4698 79.6438 29.9511 79.6474 29.4101 79.6412C29.0749 79.0649 28.6263 78.1255 28.3294 77.525L26.497 77.5261C25.8761 77.5294 25.1882 77.5467 24.5733 77.519C24.2221 78.1188 23.7874 79.0104 23.4567 79.6368C22.9545 79.6561 22.3709 79.6416 21.8623 79.6404C22.2094 78.8803 22.7425 77.9991 23.1335 77.239C24.1754 75.2133 25.3941 73.1622 26.4067 71.1306ZM25.1319 76.3954C25.6052 76.4083 26.058 76.4128 26.5316 76.4107L27.7778 76.3988C27.4547 75.7922 27.1528 75.2098 26.8515 74.5925C26.7413 74.3668 26.5293 73.8178 26.4365 73.6592C26.1593 74.5119 25.5787 75.5959 25.1319 76.3954Z" fill="white"/>
<path d="M67.4088 71.4232C69.1257 71.4615 70.9524 71.4227 72.685 71.4341L72.6909 72.5607C71.7338 72.5499 70.7764 72.5571 69.8193 72.5672C69.5258 72.5702 69.2326 72.5782 68.9396 72.5541L68.9369 74.6213C70.1365 74.6201 71.5027 74.589 72.6886 74.6424L72.6889 75.791C71.9489 75.7706 69.5614 75.74 68.9405 75.8069L68.9364 78.4475C70.1243 78.4463 71.5158 78.4127 72.6872 78.4698L72.6895 79.6397L67.4201 79.6441C67.3714 78.6341 67.3958 77.4627 67.3956 76.4381L67.4088 71.4232Z" fill="white"/>
<path d="M88.7992 71.2468C90.029 71.1511 91.1506 71.4803 91.7899 72.5783C91.4132 72.7662 90.9773 72.9574 90.592 73.1355C90.2457 72.7274 89.9084 72.4432 89.3452 72.4003C88.6769 72.3494 87.8406 72.5746 87.8364 73.3798C87.8332 73.6828 88.0118 73.9886 88.2498 74.1725C89.5112 75.1477 92.1056 75.2797 92.07 77.3433C92.0367 79.2813 90.2873 79.9334 88.5843 79.8553C87.21 79.7142 86.4256 79.3037 85.9214 78.0033C86.3354 77.8331 86.7288 77.6814 87.1487 77.5262C87.5881 78.4373 88.1565 78.6286 89.1094 78.6204C89.8115 78.6249 90.5668 78.1559 90.4814 77.3743C90.3847 76.6197 89.4847 76.2926 88.887 76.0237C87.6386 75.4578 85.9586 74.8637 86.2199 73.1709C86.3562 72.2873 86.9925 71.7046 87.8178 71.4283C88.1471 71.3182 88.4538 71.2852 88.7992 71.2468Z" fill="white"/>
<path d="M44.8327 0H47.2586C47.752 0.11787 48.6182 0.162812 49.1878 0.255962C51.142 0.575516 52.8955 1.19083 54.5851 2.22271C57.5431 4.02909 59.5481 6.91299 60.3445 10.2627C60.59 11.1321 60.6137 11.9926 60.6935 12.875C61.324 19.8325 56.7598 25.8426 49.9431 27.3847C46.1111 28.2514 42.084 27.7933 38.6712 25.6672C35.5408 23.717 33.3288 20.7145 32.4856 17.1175C31.6929 13.4794 32.1681 9.61206 34.175 6.43504C36.2726 3.1145 39.6557 0.958508 43.5032 0.213917C43.9267 0.131957 44.3531 0.112267 44.7771 0.0132769L44.8327 0ZM46.9034 19.8751C49.7407 19.406 49.6978 13.4672 49.3738 11.2983C49.154 9.82683 48.2923 7.36968 46.3592 7.69577C43.332 8.24527 43.5641 14.2247 43.9718 16.5125C44.2601 18.1303 44.9622 19.9642 46.9034 19.8751Z" fill="white"/>
<path d="M0 75.4153C0.122421 74.8364 0.192834 74.2065 0.479867 73.6793C1.60201 71.6187 4.2152 70.9142 6.40254 71.3775C7.32619 71.5732 8.02139 72.0186 8.68974 72.6595C8.31256 72.9253 7.96507 73.1517 7.57582 73.3987C6.60105 72.5819 5.95009 72.3975 4.68312 72.4842C2.81919 72.6059 1.44792 74.0262 1.67195 75.9237C1.92298 78.0497 3.96347 78.905 5.90375 78.6122C7.18239 78.4192 7.89281 77.896 8.00861 76.5643L5.72188 76.5613L5.72152 75.4347L9.46037 75.4301C9.52796 76.5958 9.50794 77.6528 8.68069 78.5672C7.84037 79.4959 6.63281 79.8027 5.43115 79.8592C3.45059 79.9521 1.39376 79.2705 0.471817 77.4021C0.178133 76.8071 0.141811 76.3157 0 75.6879V75.4153Z" fill="white"/>
</g>
<defs>
<clipPath id="clip0_375_585">
<rect width="93" height="80" fill="white"/>
</clipPath>
</defs>
</svg>
