<svg width="38" height="41" viewBox="0 0 38 41" fill="none" xmlns="http://www.w3.org/2000/svg">
<g clip-path="url(#clip0_108_707)">
<path d="M36.8224 0.5H37.0669C37.1924 0.869592 37.1109 1.11926 36.9972 1.48535C36.1328 4.24751 35.1495 6.98507 34.2219 9.723L30.1039 22.0843L27.6599 29.3102C27.3961 30.1043 26.535 33.0168 26.1168 33.5018C25.6288 33.4308 16.2197 25.6648 15.2728 24.7747C14.5189 25.7046 13.5066 26.7671 12.6905 27.6661L8.26154 32.5537L3.67602 37.6337C2.86636 38.5299 1.89157 39.6691 1.04867 40.5H0.762339C0.658317 40.2793 0.674401 40.107 0.747324 39.8796C1.28781 38.2003 1.87655 36.5331 2.44492 34.8625L5.76288 25.1226L9.26851 14.8027C9.56664 13.9193 11.424 8.11407 11.7875 7.91669C12.432 8.09649 20.9618 15.279 22.1715 16.2463C27.0905 11.1917 31.8851 5.49266 36.8224 0.5Z" fill="#FFCF00"/>
<path d="M36.0822 2.10437L36.1337 2.19309C35.8538 3.23273 35.3208 4.68203 34.9712 5.72476L32.7289 12.4064L25.8935 32.7653C22.3568 29.8596 18.7964 26.8868 15.2275 24.0263C14.7729 24.4351 14.2956 25.0201 13.8753 25.4789C9.88063 29.8444 5.975 34.3061 1.95784 38.6503C1.90851 38.7242 1.86669 38.7372 1.78626 38.7816C1.74551 38.3935 11.204 10.857 11.9772 8.63148C15.1493 11.3374 18.9487 14.431 22.2184 17.0182C23.782 15.464 25.5042 13.5065 27.0356 11.8558L36.0822 2.10437Z" fill="url(#paint0_linear_108_707)"/>
</g>
<defs>
<linearGradient id="paint0_linear_108_707" x1="36.1842" y1="2.10857" x2="1.76063" y2="38.7842" gradientUnits="userSpaceOnUse">
<stop stop-color="#FFCF00"/>
<stop offset="0.0001" stop-color="white"/>
<stop offset="1" stop-color="#FFCF00"/>
</linearGradient>
<clipPath id="clip0_108_707">
<rect width="36.4416" height="40" fill="white" transform="translate(0.688477 0.5)"/>
</clipPath>
</defs>
</svg>
