<svg width="1620" height="373" viewBox="0 0 1620 373" fill="none" xmlns="http://www.w3.org/2000/svg">
<g clip-path="url(#clip0_215_727)">
<path d="M373.987 73.7439C440.681 63.7439 502.873 109.428 512.739 175.668C522.604 241.909 476.392 303.505 409.636 313.093C343.174 322.639 281.458 277.008 271.635 211.058C261.812 145.109 307.585 83.7001 373.987 73.7439ZM396.737 244.979C422.306 237.442 420.946 182.422 415.11 162.292C411.421 149.57 404.751 139.793 390.267 140.656C362.973 150.162 366.67 205.036 373.567 226.67C377.093 237.733 384.562 245.449 396.737 244.979Z" fill="#FEFFFE"/>
<path d="M954.013 74.9515C984.881 74.1477 1018.09 78.1335 1048.52 82.8176L1048.48 147.228C1030.47 143.939 1010.95 141.871 992.758 140.043C984.179 139.181 957.132 135.923 954.982 146.87C955.287 149.255 957.246 151.783 959.37 152.718C997.927 169.441 1069.4 181.085 1067.77 236.128C1065.71 305.255 976.173 310.614 925.686 310.181C896.94 310.236 849.506 307.454 824.067 294.771L824.129 230.677C852.68 237.125 882.409 244.284 911.767 245.529C922.125 245.968 938.392 241.162 925.293 229.594C924.552 229.021 923.674 228.113 922.85 227.684C888.808 209.985 824.434 196.711 823.207 148.633C821.599 85.603 905.87 76.5337 954.013 74.9515Z" fill="#FEFFFE"/>
<path d="M0.955834 76.9893C10.1076 76.902 19.4168 77.0041 28.5828 77.0185C38.1083 86.9515 48.6051 99.7619 57.8925 110.195C79.4547 134.417 100.552 159.169 122.262 183.274L218.276 76.9782L244.99 76.984C246.316 153.719 245.068 234.181 245.021 311.268C234.517 311.457 223.708 311.359 213.179 311.389L165.473 311.381L165.334 235.546C149.273 255.436 131.595 280.332 116.013 301.075L68.0048 237.172L67.9711 311.232C46.3926 311.842 22.7438 311.378 1.00956 311.379C0.227094 286.135 0.919036 257.44 0.920066 231.884L0.955834 76.9893Z" fill="#FEFFFE"/>
<path d="M538.473 75.8069C567.236 75.1187 598.79 75.7066 627.782 75.7029L782.298 75.7896L782.319 152.083L710.358 152.249L710.37 239.113L710.338 311.05L609.898 311.096L609.833 152.221C586.33 151.774 561.572 152.176 537.97 152.186L537.827 101.828C537.817 96.5415 537.496 80.2114 538.473 75.8069Z" fill="#FEFFFE"/>
<path d="M1402.25 0H1404.54C1405.72 3.44645 1404.96 5.77463 1403.89 9.18843C1395.77 34.9455 1386.53 60.4733 1377.82 86.0045L1339.13 201.274L1316.17 268.655C1313.69 276.06 1305.6 303.219 1301.67 307.742C1297.09 307.08 1208.69 234.662 1199.8 226.362C1192.71 235.033 1183.2 244.941 1175.54 253.324L1133.93 298.901L1090.85 346.272C1083.24 354.629 1074.09 365.252 1066.17 373H1063.48C1062.5 370.942 1062.65 369.335 1063.34 367.215C1068.41 351.555 1073.95 336.009 1079.28 320.43L1110.46 229.606L1143.39 133.373C1146.19 125.135 1163.64 71.0012 1167.05 69.1606C1173.11 70.8373 1253.24 137.814 1264.61 146.834C1310.82 99.6997 1355.86 46.5566 1402.25 0Z" fill="#FF0000"/>
<g clip-path="url(#clip1_215_727)">
<path d="M1402.73 -0.531494H1405.02C1406.2 2.91496 1405.44 5.24314 1404.37 8.65694C1396.25 34.414 1387.01 59.9418 1378.29 85.473L1339.61 200.743L1316.65 268.124C1314.17 275.529 1306.08 302.688 1302.15 307.211C1297.57 306.549 1209.17 234.131 1200.28 225.831C1193.19 234.502 1183.68 244.41 1176.02 252.793L1134.41 298.37L1091.33 345.741C1083.72 354.098 1074.56 364.721 1066.65 372.469H1063.96C1062.98 370.41 1063.13 368.803 1063.81 366.684C1068.89 351.023 1074.42 335.478 1079.76 319.898L1110.93 229.075L1143.87 132.842C1146.67 124.604 1164.12 70.4697 1167.53 68.6291C1173.59 70.3058 1253.72 137.283 1265.09 146.303C1311.3 99.1682 1356.34 46.0251 1402.73 -0.531494Z" fill="#FFCF00"/>
<path d="M1395.77 14.4294L1396.26 15.2567C1393.63 24.9514 1388.62 38.4661 1385.34 48.1895L1364.27 110.496L1300.05 300.343C1266.83 273.247 1233.38 245.526 1199.85 218.852C1195.58 222.664 1191.1 228.119 1187.15 232.397C1149.62 273.106 1112.93 314.711 1075.19 355.221C1074.73 355.91 1074.33 356.031 1073.58 356.445C1073.19 352.826 1162.05 96.0477 1169.32 75.2947C1199.12 100.528 1234.81 129.376 1265.53 153.501C1280.22 139.008 1296.4 120.755 1310.78 105.362L1395.77 14.4294Z" fill="url(#paint0_linear_215_727)"/>
</g>
<path d="M1352.68 310.395C1388.61 238.162 1420.31 162.938 1456.12 90.5431C1464.58 73.44 1493.96 68.9134 1504.63 83.1311C1513.41 94.8229 1522.69 116.26 1529.49 129.852L1592.59 255.737L1610 290.755C1612.24 295.265 1617.24 305.761 1620 309.626V310.164C1586.52 311.111 1548.89 310.315 1515.1 310.317L1506.91 287.453L1451.13 287.502C1448.66 295.02 1446.35 302.739 1444.01 310.307L1352.68 310.395ZM1457.33 241.803L1478.01 241.784L1499.1 241.791L1479.46 179.596C1471.85 199.908 1465.03 221.951 1457.33 241.803Z" fill="#FEFFFE"/>
</g>
<defs>
<linearGradient id="paint0_linear_215_727" x1="1396.73" y1="14.4686" x2="1075.89" y2="358.849" gradientUnits="userSpaceOnUse">
<stop stop-color="#FFCF00"/>
<stop offset="0.0001" stop-color="white"/>
<stop offset="1" stop-color="#FFCF00"/>
</linearGradient>
<clipPath id="clip0_215_727">
<rect width="1620" height="373" fill="white"/>
</clipPath>
<clipPath id="clip1_215_727">
<rect width="342.354" height="373" fill="white" transform="translate(1063.26 -0.531494)"/>
</clipPath>
</defs>
</svg>
