<svg width="272" height="128" viewBox="0 0 272 128" fill="none" xmlns="http://www.w3.org/2000/svg">
<g opacity="0.88" filter="url(#filter0_dddd_355_72)">
<rect x="24" y="9" width="224" height="80" rx="12" fill="black"/>
<g filter="url(#filter1_ii_355_72)">
<path d="M58.3058 31.1173C57.859 31.5963 57.5948 32.3397 57.5948 33.3023V67.6961C57.5948 68.6603 57.859 69.4021 58.3058 69.8811L58.4194 69.9931L77.4426 50.7263V50.4992V50.2722L58.4194 31.0038L58.3058 31.1173Z" fill="url(#paint0_linear_355_72)"/>
<path d="M83.7826 57.1505L77.4425 50.7261V50.4991V50.272L83.7841 43.8492L83.9269 43.9317L91.4401 48.255C93.5851 49.4898 93.5851 51.5099 91.4401 52.7463L83.9269 57.0696L83.7826 57.1505Z" fill="url(#paint1_linear_355_72)"/>
<g filter="url(#filter2_i_355_72)">
<path d="M83.9259 57.0685L77.4399 50.4995L58.3046 69.8814C59.011 70.6403 60.1795 70.7336 61.4954 69.9778L83.9259 57.0685Z" fill="url(#paint2_linear_355_72)"/>
</g>
<path d="M83.9259 43.9303L61.4954 31.0225C60.1795 30.2652 59.011 30.36 58.3046 31.1189L77.4415 50.5008L83.9259 43.9303Z" fill="url(#paint3_linear_355_72)"/>
</g>
<path d="M107.27 33.5298C107.188 33.2713 107.077 33.0398 106.938 32.8352C106.802 32.6278 106.638 32.4517 106.448 32.3068C106.257 32.1591 106.04 32.0469 105.796 31.9702C105.554 31.8935 105.289 31.8551 104.999 31.8551C104.507 31.8551 104.064 31.9815 103.669 32.2344C103.275 32.4872 102.962 32.858 102.732 33.3466C102.505 33.8324 102.391 34.4276 102.391 35.1321C102.391 35.8395 102.506 36.4375 102.736 36.9261C102.966 37.4148 103.282 37.7855 103.682 38.0384C104.083 38.2912 104.539 38.4176 105.05 38.4176C105.525 38.4176 105.938 38.321 106.29 38.1278C106.645 37.9347 106.919 37.6619 107.113 37.3097C107.309 36.9545 107.407 36.5369 107.407 36.0568L107.748 36.1207H105.25V35.0341H108.681V36.027C108.681 36.7599 108.525 37.3963 108.212 37.9361C107.902 38.473 107.473 38.8878 106.925 39.1804C106.38 39.473 105.755 39.6193 105.05 39.6193C104.26 39.6193 103.567 39.4375 102.971 39.0739C102.377 38.7102 101.914 38.1946 101.581 37.527C101.249 36.8565 101.083 36.0611 101.083 35.1406C101.083 34.4446 101.179 33.8196 101.373 33.2656C101.566 32.7116 101.837 32.2415 102.186 31.8551C102.539 31.4659 102.952 31.169 103.427 30.9645C103.904 30.7571 104.425 30.6534 104.99 30.6534C105.462 30.6534 105.901 30.723 106.307 30.8622C106.716 31.0014 107.08 31.1989 107.398 31.4545C107.719 31.7102 107.985 32.0142 108.195 32.3665C108.405 32.7159 108.547 33.1037 108.621 33.5298H107.27ZM113.071 39.6321C112.426 39.6321 111.871 39.4943 111.405 39.2188C110.942 38.9403 110.584 38.5497 110.331 38.0469C110.081 37.5412 109.956 36.9489 109.956 36.2699C109.956 35.5994 110.081 35.0085 110.331 34.4972C110.584 33.9858 110.936 33.5866 111.388 33.2997C111.842 33.0128 112.374 32.8693 112.982 32.8693C113.351 32.8693 113.709 32.9304 114.055 33.0526C114.402 33.1747 114.713 33.3665 114.989 33.6278C115.264 33.8892 115.482 34.2287 115.641 34.6463C115.8 35.0611 115.879 35.5653 115.879 36.1591V36.6108H110.676V35.6562H114.631C114.631 35.321 114.563 35.0241 114.426 34.7656C114.29 34.5043 114.098 34.2983 113.851 34.1477C113.607 33.9972 113.32 33.9219 112.99 33.9219C112.632 33.9219 112.32 34.0099 112.053 34.1861C111.788 34.3594 111.584 34.5866 111.439 34.8679C111.297 35.1463 111.226 35.4489 111.226 35.7756V36.5213C111.226 36.9588 111.303 37.331 111.456 37.6378C111.612 37.9446 111.83 38.179 112.108 38.3409C112.386 38.5 112.712 38.5795 113.084 38.5795C113.325 38.5795 113.545 38.5455 113.744 38.4773C113.943 38.4062 114.115 38.3011 114.26 38.1619C114.405 38.0227 114.516 37.8509 114.592 37.6463L115.798 37.8636C115.702 38.2187 115.528 38.5298 115.278 38.7969C115.031 39.0611 114.72 39.267 114.345 39.4148C113.973 39.5597 113.548 39.6321 113.071 39.6321ZM120.348 32.9545V33.9773H116.773V32.9545H120.348ZM117.732 31.3864H119.006V37.5781C119.006 37.8253 119.043 38.0114 119.117 38.1364C119.191 38.2585 119.286 38.3423 119.402 38.3878C119.522 38.4304 119.651 38.4517 119.79 38.4517C119.892 38.4517 119.982 38.4446 120.059 38.4304C120.135 38.4162 120.195 38.4048 120.238 38.3963L120.468 39.4489C120.394 39.4773 120.289 39.5057 120.152 39.5341C120.016 39.5653 119.846 39.5824 119.641 39.5852C119.306 39.5909 118.993 39.5312 118.704 39.4062C118.414 39.2812 118.179 39.0881 118 38.8267C117.821 38.5653 117.732 38.2372 117.732 37.8423V31.3864ZM127.691 39.6321C127.077 39.6321 126.542 39.4915 126.084 39.2102C125.627 38.929 125.272 38.5355 125.019 38.0298C124.766 37.5241 124.64 36.9332 124.64 36.2571C124.64 35.5781 124.766 34.9844 125.019 34.4759C125.272 33.9673 125.627 33.5724 126.084 33.2912C126.542 33.0099 127.077 32.8693 127.691 32.8693C128.304 32.8693 128.84 33.0099 129.297 33.2912C129.755 33.5724 130.11 33.9673 130.363 34.4759C130.615 34.9844 130.742 35.5781 130.742 36.2571C130.742 36.9332 130.615 37.5241 130.363 38.0298C130.11 38.5355 129.755 38.929 129.297 39.2102C128.84 39.4915 128.304 39.6321 127.691 39.6321ZM127.695 38.5625C128.093 38.5625 128.422 38.4574 128.684 38.2472C128.945 38.0369 129.138 37.7571 129.263 37.4077C129.391 37.0582 129.455 36.6733 129.455 36.2528C129.455 35.8352 129.391 35.4517 129.263 35.1023C129.138 34.75 128.945 34.4673 128.684 34.2543C128.422 34.0412 128.093 33.9347 127.695 33.9347C127.294 33.9347 126.962 34.0412 126.698 34.2543C126.436 34.4673 126.242 34.75 126.114 35.1023C125.989 35.4517 125.927 35.8352 125.927 36.2528C125.927 36.6733 125.989 37.0582 126.114 37.4077C126.242 37.7571 126.436 38.0369 126.698 38.2472C126.962 38.4574 127.294 38.5625 127.695 38.5625ZM133.438 35.6136V39.5H132.164V32.9545H133.387V34.0199H133.468C133.619 33.6733 133.854 33.3949 134.175 33.1847C134.499 32.9744 134.907 32.8693 135.398 32.8693C135.844 32.8693 136.235 32.9631 136.57 33.1506C136.906 33.3352 137.166 33.6108 137.35 33.9773C137.535 34.3437 137.627 34.7969 137.627 35.3366V39.5H136.353V35.4901C136.353 35.0156 136.229 34.6449 135.982 34.3778C135.735 34.108 135.396 33.973 134.964 33.973C134.668 33.973 134.406 34.0369 134.175 34.1648C133.948 34.2926 133.768 34.4801 133.634 34.7273C133.504 34.9716 133.438 35.267 133.438 35.6136Z" fill="white"/>
<path d="M108.505 65.7578C104.068 65.7578 101.275 62.6641 101.275 57.6797V57.6689C101.275 52.7812 104.068 49.7412 108.473 49.7412C112.103 49.7412 114.381 51.8359 115.025 54.6289L115.068 54.8223H112.598L112.565 54.7041C111.91 52.9102 110.503 51.8682 108.483 51.8682C105.518 51.8682 103.725 54.0273 103.725 57.6582V57.6689C103.725 61.375 105.572 63.6309 108.526 63.6309C111.04 63.6309 112.78 62.041 112.812 59.6885V59.4307H108.741V57.4648H115.186V59.0547C115.186 63.2549 112.705 65.7578 108.505 65.7578ZM122.115 65.7256C118.871 65.7256 116.755 63.4805 116.755 59.8496V59.8281C116.755 56.2188 118.893 53.9844 122.104 53.9844C125.327 53.9844 127.476 56.208 127.476 59.8281V59.8496C127.476 63.4912 125.349 65.7256 122.115 65.7256ZM122.126 63.7812C123.941 63.7812 125.102 62.3418 125.102 59.8496V59.8281C125.102 57.3574 123.92 55.9287 122.104 55.9287C120.321 55.9287 119.129 57.3574 119.129 59.8281V59.8496C119.129 62.3525 120.31 63.7812 122.126 63.7812ZM134.125 65.7256C130.881 65.7256 128.765 63.4805 128.765 59.8496V59.8281C128.765 56.2188 130.902 53.9844 134.114 53.9844C137.337 53.9844 139.485 56.208 139.485 59.8281V59.8496C139.485 63.4912 137.358 65.7256 134.125 65.7256ZM134.136 63.7812C135.951 63.7812 137.111 62.3418 137.111 59.8496V59.8281C137.111 57.3574 135.93 55.9287 134.114 55.9287C132.331 55.9287 131.139 57.3574 131.139 59.8281V59.8496C131.139 62.3525 132.32 63.7812 134.136 63.7812ZM146.231 69.4854C143.331 69.4854 141.494 68.1426 141.15 66.4131L141.14 66.3164H143.438L143.481 66.4023C143.793 67.1221 144.77 67.6162 146.221 67.6162C148.068 67.6162 149.089 66.6279 149.089 65.0488V63.502H149.035C148.391 64.7266 147.102 65.5107 145.479 65.5107C142.643 65.5107 140.774 63.2871 140.774 59.7637V59.7529C140.774 56.208 142.665 53.9844 145.533 53.9844C147.123 53.9844 148.369 54.8438 149.035 56.1221H149.089V54.1992H151.42V65.1885C151.42 67.7666 149.422 69.4854 146.231 69.4854ZM146.135 63.6201C147.907 63.6201 149.089 62.127 149.089 59.7959V59.7852C149.089 57.4648 147.896 55.9717 146.135 55.9717C144.298 55.9717 143.148 57.4541 143.148 59.7852V59.7959C143.148 62.1592 144.298 63.6201 146.135 63.6201ZM153.805 65.5V49.999H156.125V65.5H153.805ZM163.333 65.7256C160.014 65.7256 158.005 63.459 158.005 59.8926V59.8818C158.005 56.3477 160.046 53.9844 163.215 53.9844C166.384 53.9844 168.328 56.2617 168.328 59.6562V60.4404H160.325C160.368 62.5781 161.539 63.8242 163.387 63.8242C164.762 63.8242 165.675 63.1152 165.965 62.2666L165.997 62.1807H168.199L168.178 62.2988C167.812 64.0928 166.072 65.7256 163.333 65.7256ZM163.226 55.8857C161.722 55.8857 160.561 56.9062 160.357 58.7969H166.029C165.836 56.8418 164.74 55.8857 163.226 55.8857ZM174.881 65.5V49.999H180.649C183.689 49.999 185.795 52.04 185.795 55.0801V55.1016C185.795 58.1309 183.689 60.2041 180.649 60.2041H177.287V65.5H174.881ZM180.048 52.0293H177.287V58.1846H180.048C182.143 58.1846 183.346 57.0566 183.346 55.1123V55.0908C183.346 53.1572 182.143 52.0293 180.048 52.0293ZM187.707 65.5V49.999H190.027V65.5H187.707ZM195.731 65.7041C193.476 65.7041 191.961 64.3184 191.961 62.2881V62.2666C191.961 60.3008 193.486 59.0977 196.161 58.9365L199.233 58.7539V57.9053C199.233 56.6592 198.428 55.9072 196.988 55.9072C195.645 55.9072 194.818 56.541 194.625 57.4434L194.603 57.54H192.412L192.423 57.4219C192.584 55.4775 194.27 53.9844 197.053 53.9844C199.813 53.9844 201.564 55.4453 201.564 57.7119V65.5H199.233V63.7168H199.19C198.535 64.9307 197.225 65.7041 195.731 65.7041ZM194.303 62.2344C194.303 63.2227 195.119 63.8457 196.365 63.8457C197.998 63.8457 199.233 62.7393 199.233 61.2676V60.3867L196.473 60.5586C195.076 60.6445 194.303 61.2568 194.303 62.2129V62.2344ZM205.131 69.2705C204.68 69.2705 204.196 69.2168 203.917 69.1631V67.3477C204.1 67.3906 204.368 67.4336 204.68 67.4336C205.775 67.4336 206.377 67.1436 206.764 66.0479L206.957 65.5107L202.843 54.1992H205.356L208.203 63.3945H208.278L211.125 54.1992H213.574L209.363 66.0264C208.525 68.3682 207.344 69.2705 205.131 69.2705Z" fill="white"/>
</g>
<defs>
<filter id="filter0_dddd_355_72" x="0.551723" y="0.724138" width="270.897" height="126.897" filterUnits="userSpaceOnUse" color-interpolation-filters="sRGB">
<feFlood flood-opacity="0" result="BackgroundImageFix"/>
<feColorMatrix in="SourceAlpha" type="matrix" values="0 0 0 0 0 0 0 0 0 0 0 0 0 0 0 0 0 0 127 0" result="hardAlpha"/>
<feOffset dy="0.687128"/>
<feGaussianBlur stdDeviation="0.530963"/>
<feColorMatrix type="matrix" values="0 0 0 0 0 0 0 0 0 0 0 0 0 0 0 0 0 0 0.0268173 0"/>
<feBlend mode="normal" in2="BackgroundImageFix" result="effect1_dropShadow_355_72"/>
<feColorMatrix in="SourceAlpha" type="matrix" values="0 0 0 0 0 0 0 0 0 0 0 0 0 0 0 0 0 0 127 0" result="hardAlpha"/>
<feOffset dy="1.89982"/>
<feGaussianBlur stdDeviation="1.46804"/>
<feColorMatrix type="matrix" values="0 0 0 0 0 0 0 0 0 0 0 0 0 0 0 0 0 0 0.0399899 0"/>
<feBlend mode="normal" in2="effect1_dropShadow_355_72" result="effect2_dropShadow_355_72"/>
<feColorMatrix in="SourceAlpha" type="matrix" values="0 0 0 0 0 0 0 0 0 0 0 0 0 0 0 0 0 0 127 0" result="hardAlpha"/>
<feOffset dy="4.57404"/>
<feGaussianBlur stdDeviation="3.53448"/>
<feColorMatrix type="matrix" values="0 0 0 0 0 0 0 0 0 0 0 0 0 0 0 0 0 0 0.0582218 0"/>
<feBlend mode="normal" in2="effect2_dropShadow_355_72" result="effect3_dropShadow_355_72"/>
<feColorMatrix in="SourceAlpha" type="matrix" values="0 0 0 0 0 0 0 0 0 0 0 0 0 0 0 0 0 0 127 0" result="hardAlpha"/>
<feOffset dy="15.1724"/>
<feGaussianBlur stdDeviation="11.7241"/>
<feColorMatrix type="matrix" values="0 0 0 0 0 0 0 0 0 0 0 0 0 0 0 0 0 0 0.08 0"/>
<feBlend mode="normal" in2="effect3_dropShadow_355_72" result="effect4_dropShadow_355_72"/>
<feBlend mode="normal" in="SourceGraphic" in2="effect4_dropShadow_355_72" result="shape"/>
</filter>
<filter id="filter1_ii_355_72" x="57.5948" y="30.4999" width="35.454" height="40" filterUnits="userSpaceOnUse" color-interpolation-filters="sRGB">
<feFlood flood-opacity="0" result="BackgroundImageFix"/>
<feBlend mode="normal" in="SourceGraphic" in2="BackgroundImageFix" result="shape"/>
<feColorMatrix in="SourceAlpha" type="matrix" values="0 0 0 0 0 0 0 0 0 0 0 0 0 0 0 0 0 0 127 0" result="hardAlpha"/>
<feOffset dy="-0.0689655"/>
<feComposite in2="hardAlpha" operator="arithmetic" k2="-1" k3="1"/>
<feColorMatrix type="matrix" values="0 0 0 0 0 0 0 0 0 0 0 0 0 0 0 0 0 0 0.12 0"/>
<feBlend mode="normal" in2="shape" result="effect1_innerShadow_355_72"/>
<feColorMatrix in="SourceAlpha" type="matrix" values="0 0 0 0 0 0 0 0 0 0 0 0 0 0 0 0 0 0 127 0" result="hardAlpha"/>
<feOffset dy="0.0689655"/>
<feComposite in2="hardAlpha" operator="arithmetic" k2="-1" k3="1"/>
<feColorMatrix type="matrix" values="0 0 0 0 1 0 0 0 0 1 0 0 0 0 1 0 0 0 0.25 0"/>
<feBlend mode="normal" in2="effect1_innerShadow_355_72" result="effect2_innerShadow_355_72"/>
</filter>
<filter id="filter2_i_355_72" x="58.3046" y="50.4995" width="25.6212" height="20.0004" filterUnits="userSpaceOnUse" color-interpolation-filters="sRGB">
<feFlood flood-opacity="0" result="BackgroundImageFix"/>
<feBlend mode="normal" in="SourceGraphic" in2="BackgroundImageFix" result="shape"/>
<feColorMatrix in="SourceAlpha" type="matrix" values="0 0 0 0 0 0 0 0 0 0 0 0 0 0 0 0 0 0 127 0" result="hardAlpha"/>
<feOffset dy="-0.0689655"/>
<feComposite in2="hardAlpha" operator="arithmetic" k2="-1" k3="1"/>
<feColorMatrix type="matrix" values="0 0 0 0 0 0 0 0 0 0 0 0 0 0 0 0 0 0 0.08 0"/>
<feBlend mode="normal" in2="shape" result="effect1_innerShadow_355_72"/>
</filter>
<linearGradient id="paint0_linear_355_72" x1="75.7564" y1="32.9384" x2="49.6599" y2="58.705" gradientUnits="userSpaceOnUse">
<stop stop-color="#00A0FF"/>
<stop offset="0.0066" stop-color="#00A1FF"/>
<stop offset="0.2601" stop-color="#00BEFF"/>
<stop offset="0.5122" stop-color="#00D2FF"/>
<stop offset="0.7604" stop-color="#00DFFF"/>
<stop offset="1" stop-color="#00E3FF"/>
</linearGradient>
<linearGradient id="paint1_linear_355_72" x1="94.2324" y1="50.4991" x2="57.0797" y2="50.4991" gradientUnits="userSpaceOnUse">
<stop stop-color="#FFE000"/>
<stop offset="0.4087" stop-color="#FFBD00"/>
<stop offset="0.7754" stop-color="#FFA500"/>
<stop offset="1" stop-color="#FF9C00"/>
</linearGradient>
<linearGradient id="paint2_linear_355_72" x1="80.4036" y1="54.0669" x2="45.0135" y2="89.0096" gradientUnits="userSpaceOnUse">
<stop stop-color="#FF3A44"/>
<stop offset="1" stop-color="#C31162"/>
</linearGradient>
<linearGradient id="paint3_linear_355_72" x1="53.4853" y1="19.6696" x2="69.288" y2="35.2725" gradientUnits="userSpaceOnUse">
<stop stop-color="#32A071"/>
<stop offset="0.0685" stop-color="#2DA771"/>
<stop offset="0.4762" stop-color="#15CF74"/>
<stop offset="0.8009" stop-color="#06E775"/>
<stop offset="1" stop-color="#00F076"/>
</linearGradient>
</defs>
</svg>
